HIERARCHY
ROOT hip
{
  OFFSET 0 0 0
  CHANNELS 6 Xposition Yposition Zposition Zrotation Yrotation Xrotation
  JOINT abdomen
  {
    OFFSET 0 20.6881 -0.73152
    CHANNELS 3 Zrotation Xrotation Yrotation
    JOINT chest
    {
      OFFSET 0 11.7043 -0.48768
      CHANNELS 3 Zrotation Xrotation Yrotation
      JOINT neck
      {
        OFFSET 0 22.1894 -2.19456
        CHANNELS 3 Zrotation Xrotation Yrotation
        JOINT head
        {
          OFFSET -0.24384 7.07133 1.2192
          CHANNELS 3 Zrotation Xrotation Yrotation
          JOINT leftEye
          {
            OFFSET 4.14528 8.04674 8.04672
            CHANNELS 3 Zrotation Xrotation Yrotation
            End Site
            {
              OFFSET 1 0 0
            }
          }
          JOINT rightEye
          {
            OFFSET -3.6576 8.04674 8.04672
            CHANNELS 3 Zrotation Xrotation Yrotation
            End Site
            {
              OFFSET 1 0 0
            }
          }
        }
      }
      JOINT rCollar
      {
        OFFSET -2.68224 19.2634 -4.8768
        CHANNELS 3 Zrotation Xrotation Yrotation
        JOINT rShldr
        {
          OFFSET -8.77824 -1.95073 1.46304
          CHANNELS 3 Zrotation Xrotation Yrotation
          JOINT rForeArm
          {
            OFFSET -28.1742 -1.7115 0.48768
            CHANNELS 3 Zrotation Xrotation Yrotation
            JOINT rHand
            {
              OFFSET -22.5879 0.773209 7.07136
              CHANNELS 3 Zrotation Xrotation Yrotation
              JOINT rThumb1
              {
                OFFSET -1.2192 -0.487915 3.41376
                CHANNELS 3 Zrotation Xrotation Yrotation
                JOINT rThumb2
                {
                  OFFSET -3.37035 -0.52449 3.41376
                  CHANNELS 3 Zrotation Xrotation Yrotation
                  End Site
                  {
                    OFFSET -1.78271 -1.18214 1.43049
                  }
                }
              }
              JOINT rIndex1
              {
                OFFSET -7.75947 0.938293 5.60832
                CHANNELS 3 Zrotation Xrotation Yrotation
                JOINT rIndex2
                {
                  OFFSET -2.54057 -0.884171 1.56538
                  CHANNELS 3 Zrotation Xrotation Yrotation
                  End Site
                  {
                    OFFSET -1.62519 -0.234802 1.16502
                  }
                }
              }
              JOINT rMid1
              {
                OFFSET -8.24714 1.18213 3.41376
                CHANNELS 3 Zrotation Xrotation Yrotation
                JOINT rMid2
                {
                  OFFSET -3.10165 -0.590103 1.0647
                  CHANNELS 3 Zrotation Xrotation Yrotation
                  End Site
                  {
                    OFFSET -2.48547 -0.328903 0.83742
                  }
                }
              }
              JOINT rRing1
              {
                OFFSET -8.82822 0.546677 1.51678
                CHANNELS 3 Zrotation Xrotation Yrotation
                JOINT rRing2
                {
                  OFFSET -2.60934 -0.819778 -0.0198488
                  CHANNELS 3 Zrotation Xrotation Yrotation
                  End Site
                  {
                    OFFSET -2.33842 -0.294052 0.168128
                  }
                }
              }
              JOINT rPinky1
              {
                OFFSET -8.27202 -0.0477905 -0.4584
                CHANNELS 3 Zrotation Xrotation Yrotation
                JOINT rPinky2
                {
                  OFFSET -1.82734 -0.647385 -0.700984
                  CHANNELS 3 Zrotation Xrotation Yrotation
                  End Site
                  {
                    OFFSET -1.69225 -0.51767 -0.607171
                  }
                }
              }
            }
          }
        }
      }
      JOINT lCollar
      {
        OFFSET 2.68224 19.2634 -4.8768
        CHANNELS 3 Zrotation Xrotation Yrotation
        JOINT lShldr
        {
          OFFSET 8.77824 -1.95073 1.46304
          CHANNELS 3 Zrotation Xrotation Yrotation
          JOINT lForeArm
          {
            OFFSET 28.1742 -1.7115 0.48768
            CHANNELS 3 Zrotation Xrotation Yrotation
            JOINT lHand
            {
              OFFSET 22.5879 0.773209 7.07136
              CHANNELS 3 Zrotation Xrotation Yrotation
              JOINT lThumb1
              {
                OFFSET 1.2192 -0.487915 3.41376
                CHANNELS 3 Zrotation Xrotation Yrotation
                JOINT lThumb2
                {
                  OFFSET 3.37035 -0.52449 3.41376
                  CHANNELS 3 Zrotation Xrotation Yrotation
                  End Site
                  {
                    OFFSET 1.78271 -1.18214 1.43049
                  }
                }
              }
              JOINT lIndex1
              {
                OFFSET 7.75947 0.938293 5.60832
                CHANNELS 3 Zrotation Xrotation Yrotation
                JOINT lIndex2
                {
                  OFFSET 2.54057 -0.884171 1.56538
                  CHANNELS 3 Zrotation Xrotation Yrotation
                  End Site
                  {
                    OFFSET 1.62519 -0.234802 1.16502
                  }
                }
              }
              JOINT lMid1
              {
                OFFSET 8.24714 1.18213 3.41376
                CHANNELS 3 Zrotation Xrotation Yrotation
                JOINT lMid2
                {
                  OFFSET 3.10165 -0.590103 1.0647
                  CHANNELS 3 Zrotation Xrotation Yrotation
                  End Site
                  {
                    OFFSET 2.48547 -0.328903 0.83742
                  }
                }
              }
              JOINT lRing1
              {
                OFFSET 8.82822 0.546677 1.51678
                CHANNELS 3 Zrotation Xrotation Yrotation
                JOINT lRing2
                {
                  OFFSET 2.60934 -0.819778 -0.0198488
                  CHANNELS 3 Zrotation Xrotation Yrotation
                  End Site
                  {
                    OFFSET 2.33842 -0.294052 0.168128
                  }
                }
              }
              JOINT lPinky1
              {
                OFFSET 8.27202 -0.0477905 -0.4584
                CHANNELS 3 Zrotation Xrotation Yrotation
                JOINT lPinky2
                {
                  OFFSET 1.82734 -0.647385 -0.700984
                  CHANNELS 3 Zrotation Xrotation Yrotation
                  End Site
                  {
                    OFFSET 1.69225 -0.51767 -0.607171
                  }
                }
              }
            }
          }
        }
      }
    }
  }
  JOINT rButtock
  {
    OFFSET -8.77824 4.35084 1.2192
    CHANNELS 3 Zrotation Xrotation Yrotation
    JOINT rThigh
    {
      OFFSET 0 -1.70687 -2.19456
      CHANNELS 3 Zrotation Xrotation Yrotation
      JOINT rShin
      {
        OFFSET 0 -36.8199 0.73152
        CHANNELS 3 Zrotation Xrotation Yrotation
        JOINT rFoot
        {
          OFFSET 0.73152 -45.1104 -5.12064
          CHANNELS 3 Zrotation Xrotation Yrotation
          End Site
          {
            OFFSET -1.1221 -3.69964 12.103
          }
        }
      }
    }
  }
  JOINT lButtock
  {
    OFFSET 8.77824 4.35084 1.2192
    CHANNELS 3 Zrotation Xrotation Yrotation
    JOINT lThigh
    {
      OFFSET 0 -1.70687 -2.19456
      CHANNELS 3 Zrotation Xrotation Yrotation
      JOINT lShin
      {
        OFFSET 0 -36.8199 0.73152
        CHANNELS 3 Zrotation Xrotation Yrotation
        JOINT lFoot
        {
          OFFSET -0.73152 -45.1104 -5.12064
          CHANNELS 3 Zrotation Xrotation Yrotation
          End Site
          {
            OFFSET 1.1221 -3.69964 12.103
          }
        }
      }
    }
  }
}
MOTION
Frames:	7
Frame Time:	0.00833333
3.58443 83.3962 51.0622 -8.4994 -0.9221 7.812 4.64873 -10.1516 4.5822 -4.27862 -3.79697 0.821893 -3.64785 5.56296 -5.67794 14.2631 17.0626 -12.7207 -0.0 0.0 0.0 -0.0 0.0 0.0 2.32488e-13 -7.77517e-14 -3.15823e-14 44.7186 71.5874 54.0376 -18.9346 -54.1232 116.742 -1.02914 27.5248 4.2 1.28797e-09 2.02822e-10 2.18257e-09 2.26631e-09 3.76201e-10 3.74156e-09 1.288e-09 2.02833e-10 2.18256e-09 7.73091 5.47488 0.417314 1.28797e-09 2.02823e-10 2.18257e-09 2.90554 0.965183 0.102902 1.28798e-09 2.02823e-10 2.18257e-09 10.2786 0.731801 0.0259123 1.28797e-09 2.02824e-10 2.18257e-09 2.22167 -0.733487 -0.20892 2.32494e-13 -7.77536e-14 -3.17007e-14 -21.2743 72.4791 -73.7525 17.2725 -55.1866 -120.487 0.642925 -22.1597 3.28139 3.83304e-10 -3.2065e-10 -3.24867e-10 6.73137e-10 -5.568e-10 -5.55861e-10 3.83302e-10 -3.20648e-10 -3.24869e-10 -7.73091 5.47488 -0.417314 3.83304e-10 -3.20648e-10 -3.24874e-10 -2.90554 0.965183 -0.102902 3.83304e-10 -3.20647e-10 -3.24872e-10 -10.2786 0.731801 -0.0259123 3.83312e-10 -3.20644e-10 -3.2488e-10 -2.22167 -0.733487 0.20892 -2.03217e-16 0.0 -3.88251e-19 3.76331 -7.58281 18.8035 -0.00536192 4.32792 0.426529 -4.94749 -7.35788 -17.7985 2.03217e-16 0.0 3.88251e-19 2.80649 -9.00216 -32.604 -0.00912136 13.6887 -0.185364 9.51868 -13.2866 42.4113
3.56337 83.4277 50.9961 -8.5394 -0.7856 7.7839 4.74634 -9.79523 4.27502 -4.08824 -3.66613 0.750748 -4.1586 5.14024 -5.6903 14.5677 17.0616 -12.6766 -0.0 0.0 0.0 -0.0 0.0 0.0 1.32778e-13 -1.11196e-13 -5.99459e-16 41.3042 71.3116 57.3569 -18.8514 -54.1802 116.935 -1.03265 27.5671 4.20759 8.96215e-10 5.9059e-11 1.84983e-09 1.58249e-09 1.21866e-10 3.17541e-09 8.96246e-10 5.90678e-11 1.84982e-09 7.73091 5.47488 0.417314 8.96213e-10 5.90589e-11 1.84982e-09 2.90554 0.965183 0.102902 8.96223e-10 5.90585e-11 1.84982e-09 10.2786 0.731801 0.0259123 8.96213e-10 5.90605e-11 1.84982e-09 2.22167 -0.733487 -0.20892 1.32745e-13 -1.11194e-13 -7.45443e-16 -21.6937 71.791 -73.7595 17.0484 -55.3176 -120.976 0.660177 -22.4356 3.32678 5.9126e-11 -9.09009e-11 -1.20442e-10 1.08453e-10 -1.59823e-10 -2.07841e-10 5.91195e-11 -9.09013e-11 -1.20445e-10 -7.73091 5.47488 -0.417314 5.91236e-11 -9.09022e-11 -1.20449e-10 -2.90554 0.965183 -0.102902 5.9122e-11 -9.09e-11 -1.20445e-10 -10.2786 0.731801 -0.0259123 5.91342e-11 -9.08974e-11 -1.20451e-10 -2.22167 -0.733487 0.20892 -2.03217e-16 0.0 -3.88251e-19 3.91749 -7.60978 18.7879 -0.007225 4.42905 0.422354 -4.97715 -7.41047 -17.8627 2.03217e-16 0.0 3.88251e-19 3.02427 -9.11741 -32.3981 -0.00768457 13.6954 -0.19287 9.24373 -13.0683 42.0676
3.51575 83.4422 50.9049 -8.6915 -0.6775 7.7718 4.92327 -9.35736 4.00464 -3.93431 -3.52614 0.688813 -4.64306 4.72258 -5.72824 14.9041 16.9086 -12.6699 -0.0 0.0 0.0 -0.0 0.0 0.0 3.37543e-14 -1.45895e-13 2.89313e-14 38.1591 70.9703 60.4088 -18.7855 -54.2267 117.087 -1.03622 27.6101 4.2153 5.13582e-10 -5.09266e-11 1.45925e-09 9.13372e-10 -7.43774e-11 2.50905e-09 5.13612e-10 -5.09204e-11 1.45925e-09 7.73091 5.47488 0.417314 5.1358e-10 -5.0928e-11 1.45925e-09 2.90554 0.965183 0.102902 5.1359e-10 -5.09284e-11 1.45925e-09 10.2786 0.731801 0.0259123 5.13581e-10 -5.0925e-11 1.45924e-09 2.22167 -0.733487 -0.20892 3.36825e-14 -1.4589e-13 2.87562e-14 -22.2041 71.154 -73.6837 16.8359 -55.4401 -121.436 0.68497 -22.8259 3.39126 -3.02835e-10 1.68289e-10 8.45746e-11 -5.2162e-10 2.8771e-10 1.40479e-10 -3.02846e-10 1.68285e-10 8.45692e-11 -7.73091 5.47488 -0.417314 -3.0284e-10 1.68284e-10 8.4568e-11 -2.90554 0.965183 -0.102902 -3.02843e-10 1.68287e-10 8.45734e-11 -10.2786 0.731801 -0.0259123 -3.02827e-10 1.68289e-10 8.45693e-11 -2.22167 -0.733487 0.20892 -2.03217e-16 0.0 -3.88251e-19 4.14436 -7.64165 18.7497 -0.00939431 4.5473 0.416968 -5.00158 -7.45799 -17.9156 2.03217e-16 0.0 3.88251e-19 3.33046 -9.24513 -32.1302 -0.00645902 13.7047 -0.20174 8.92579 -12.8106 41.6547
3.46163 83.4533 50.809 -8.8502 -0.5809 7.7039 5.0362 -8.87897 3.88733 -3.85287 -3.38742 0.670843 -4.89816 4.41012 -5.79772 15.1667 16.6803 -12.7486 -0.0 0.0 0.0 -0.0 0.0 0.0 -8.84681e-15 -1.55851e-13 4.14466e-14 36.1943 70.6252 62.396 -18.6858 -54.296 117.317 -1.04073 27.6644 4.22505 3.22027e-10 -6.43522e-11 1.12063e-09 5.7612e-10 -1.0153e-10 1.92815e-09 3.22056e-10 -6.43478e-11 1.12062e-09 7.73091 5.47488 0.417314 3.22026e-10 -6.43543e-11 1.12062e-09 2.90554 0.965183 0.102902 3.22036e-10 -6.43546e-11 1.12062e-09 10.2786 0.731801 0.0259123 3.22026e-10 -6.43506e-11 1.12062e-09 2.22167 -0.733487 -0.20892 -8.94504e-15 -1.55844e-13 4.12478e-14 -22.2933 70.6694 -73.9684 16.6218 -55.5607 -121.898 0.711419 -23.2356 3.45929 -4.54029e-10 2.39629e-10 9.36324e-11 -7.83536e-10 4.10206e-10 1.53481e-10 -4.54042e-10 2.39625e-10 9.3626e-11 -7.73091 5.47488 -0.417314 -4.54035e-10 2.39623e-10 9.3626e-11 -2.90554 0.965183 -0.102902 -4.54039e-10 2.39627e-10 9.36324e-11 -10.2786 0.731801 -0.0259123 -4.54022e-10 2.39629e-10 9.36292e-11 -2.22167 -0.733487 0.20892 -2.03217e-16 0.0 -3.88251e-19 4.32984 -7.70737 18.689 -0.0117962 4.68409 0.411252 -5.01346 -7.48587 -17.9461 2.03217e-16 0.0 3.88251e-19 3.60718 -9.41168 -31.7833 -0.0050773 13.7579 -0.211219 8.63396 -12.5911 41.1793
3.41295 83.4641 50.711 -8.9689 -0.5032 7.5965 5.04685 -8.35196 4.00294 -3.88503 -3.25495 0.719407 -4.79726 4.26348 -5.92082 15.3003 16.3416 -12.9698 -0.0 0.0 0.0 -0.0 0.0 0.0 4.44808e-14 -1.18229e-13 2.65836e-14 35.7679 70.3442 63.0397 -18.5343 -54.3981 117.664 -1.04844 27.7568 4.24166 4.49676e-10 9.89363e-11 7.94054e-10 7.92103e-10 1.79757e-10 1.36087e-09 4.49703e-10 9.89401e-11 7.94046e-10 7.73091 5.47488 0.417314 4.49674e-10 9.89341e-11 7.94052e-10 2.90554 0.965183 0.102902 4.49685e-10 9.89339e-11 7.94052e-10 10.2786 0.731801 0.0259123 4.49675e-10 9.89376e-11 7.94049e-10 2.22167 -0.733487 -0.20892 4.43734e-14 -1.18223e-13 2.63665e-14 -21.6821 70.4116 -74.8501 16.4025 -55.6815 -122.367 0.742086 -23.7044 3.5375 -2.07085e-10 -4.50491e-11 -2.61294e-10 -3.50229e-10 -8.302e-11 -4.56026e-10 -2.07096e-10 -4.50538e-11 -2.61301e-10 -7.73091 5.47488 -0.417314 -2.0709e-10 -4.50539e-11 -2.613e-10 -2.90554 0.965183 -0.102902 -2.07095e-10 -4.50517e-11 -2.61294e-10 -10.2786 0.731801 -0.0259123 -2.07078e-10 -4.505e-11 -2.61298e-10 -2.22167 -0.733487 0.20892 -2.03217e-16 0.0 -3.88251e-19 4.45347 -7.80836 18.5976 -0.0143255 4.83609 0.405039 -5.00785 -7.4808 -17.9512 2.03217e-16 0.0 3.88251e-19 3.84212 -9.62328 -31.328 -0.00324231 13.8703 -0.221566 8.38014 -12.4292 40.6146
3.37706 83.4693 50.5946 -9.0542 -0.4087 7.4995 5.02498 -7.76127 4.27236 -4.00159 -3.12244 0.811507 -4.47274 4.21792 -6.08733 15.3659 15.8706 -13.2928 -0.0 0.0 0.0 -0.0 0.0 0.0 1.55797e-13 -5.2196e-14 -5.28643e-15 36.2851 70.1101 62.8643 -18.3587 -54.5141 118.064 -1.05826 27.8735 4.26269 7.72952e-10 3.84317e-10 4.44043e-10 1.34657e-09 6.73701e-10 7.48639e-10 7.72976e-10 3.84321e-10 4.44032e-10 7.73091 5.47488 0.417314 7.7295e-10 3.84316e-10 4.44042e-10 2.90554 0.965183 0.102902 7.72961e-10 3.84316e-10 4.44044e-10 10.2786 0.731801 0.0259123 7.72951e-10 3.84318e-10 4.44046e-10 2.22167 -0.733487 -0.20892 1.5569e-13 -5.21911e-14 -5.51938e-15 -20.6936 70.3038 -76.0484 16.1855 -55.7991 -122.829 0.779915 -24.2611 3.63126 2.65074e-10 -5.33117e-10 -8.36841e-10 4.76593e-10 -9.28141e-10 -1.44315e-09 2.65066e-10 -5.33121e-10 -8.36847e-10 -7.73091 5.47488 -0.417314 2.65071e-10 -5.33119e-10 -8.36846e-10 -2.90554 0.965183 -0.102902 2.65065e-10 -5.33119e-10 -8.36841e-10 -10.2786 0.731801 -0.0259123 2.6508e-10 -5.33117e-10 -8.36847e-10 -2.22167 -0.733487 0.20892 -2.03217e-16 0.0 -3.88251e-19 4.5724 -7.93138 18.4781 -0.0170309 5.0038 0.397994 -4.9896 -7.45373 -17.9368 2.03217e-16 0.0 3.88251e-19 4.09415 -9.86677 -30.7816 -0.00117577 14.0183 -0.233043 8.13081 -12.2817 39.9665
3.35731 83.4684 50.4522 -9.0677 -0.3204 7.4428 4.98897 -7.13762 4.57327 -4.1331 -2.9834 0.91354 -4.11 4.18549 -6.2548 15.4344 15.3637 -13.6184 -0.0 0.0 0.0 -0.0 0.0 0.0 2.64668e-13 5.24578e-15 -3.86256e-14 37.1872 69.8765 62.3205 -18.1748 -54.6328 118.481 -1.06601 27.9649 4.2792 1.09626e-09 6.52411e-10 1.86979e-10 1.9025e-09 1.1386e-09 2.97012e-10 1.09628e-09 6.52415e-10 1.86964e-10 7.73091 5.47488 0.417314 1.09625e-09 6.5241e-10 1.86978e-10 2.90554 0.965183 0.102902 1.09627e-09 6.5241e-10 1.86982e-10 10.2786 0.731801 0.0259123 1.09626e-09 6.52411e-10 1.8699e-10 2.22167 -0.733487 -0.20892 2.64567e-13 5.24932e-15 -3.88698e-14 -19.7526 70.2253 -77.1961 15.9737 -55.9116 -123.277 0.817916 -24.7952 3.72225 6.70555e-10 -9.60663e-10 -1.36247e-09 1.18731e-09 -1.66899e-09 -2.34538e-09 6.70551e-10 -9.60665e-10 -1.36248e-09 -7.73091 5.47488 -0.417314 6.70554e-10 -9.60663e-10 -1.36248e-09 -2.90554 0.965183 -0.102902 6.70547e-10 -9.60664e-10 -1.36247e-09 -10.2786 0.731801 -0.0259123 6.7056e-10 -9.60662e-10 -1.36248e-09 -2.22167 -0.733487 0.20892 -2.03217e-16 0.0 -3.88251e-19 4.68892 -8.0834 18.3473 -0.0200759 5.19432 0.390742 -4.96605 -7.4264 -17.9053 2.03217e-16 0.0 3.88251e-19 4.35239 -10.1398 -30.1967 0.00071969 14.1853 -0.244895 7.88461 -12.1348 39.2889
